<svg xmlns="http://www.w3.org/2000/svg" xmlns:xlink="http://www.w3.org/1999/xlink" width="500" zoomAndPan="magnify" viewBox="0 0 375 374.999991" height="500" preserveAspectRatio="xMidYMid meet" version="1.0"><path fill="#e6b800" d="M 187.5 0 C 217.964844 30.019531 207.1875 28.3125 245.4375 9.175781 C 265.136719 47.140625 255.421875 42.1875 297.703125 35.8125 C 304.710938 78 297 70.289062 339.191406 77.289062 C 332.8125 119.578125 327.859375 109.863281 365.824219 129.558594 C 346.6875 167.808594 344.980469 157.035156 375 187.5 C 344.980469 217.964844 346.6875 207.191406 365.824219 245.441406 C 327.859375 265.140625 332.8125 255.421875 339.191406 297.707031 C 297 304.714844 304.710938 297 297.707031 339.191406 C 255.421875 332.8125 265.136719 327.859375 245.441406 365.824219 C 207.191406 346.6875 217.964844 344.980469 187.5 375 C 157.03125 344.980469 167.808594 346.6875 129.558594 365.824219 C 109.859375 327.859375 119.578125 332.8125 77.292969 339.191406 C 70.285156 297 78 304.714844 35.808594 297.710938 C 42.1875 255.421875 47.136719 265.140625 9.175781 245.445312 C 28.585938 206.640625 31.398438 219.363281 0 187.5 C 30.015625 157.035156 28.3125 167.808594 9.175781 129.5625 C 47.136719 109.863281 42.1875 119.578125 35.808594 77.292969 C 78 70.289062 70.285156 78 77.289062 35.8125 C 119.578125 42.1875 109.859375 47.140625 129.554688 9.175781 C 167.808594 28.3125 157.035156 30.019531 187.5 0 Z M 187.5 0 " fill-opacity="1" fill-rule="evenodd"/><path fill="#66a4b5" d="M 188.65625 22.964844 C 192.335938 26.59375 195.339844 29.703125 197.859375 32.308594 C 204.144531 38.8125 207.289062 42.070312 210.453125 42.570312 C 213.613281 43.070312 217.613281 40.941406 225.605469 36.699219 C 228.703125 35.050781 232.402344 33.085938 237.242188 30.664062 C 238.050781 30.261719 239.027344 30.585938 239.4375 31.378906 L 239.441406 31.378906 C 241.882812 36.085938 243.742188 39.894531 245.300781 43.097656 C 249.273438 51.230469 251.257812 55.296875 254.113281 56.753906 C 256.976562 58.210938 261.429688 57.425781 270.339844 55.859375 C 273.914062 55.230469 278.179688 54.476562 283.273438 53.707031 C 284.171875 53.578125 285.015625 54.195312 285.144531 55.089844 L 285.15625 55.175781 C 286.003906 60.28125 286.597656 64.492188 287.097656 68.03125 C 288.355469 76.996094 288.984375 81.472656 291.25 83.738281 L 291.253906 83.742188 L 291.257812 83.738281 C 293.527344 86.011719 298.007812 86.640625 306.964844 87.898438 C 310.527344 88.398438 314.773438 89 319.925781 89.855469 C 320.8125 89.996094 321.421875 90.828125 321.285156 91.71875 L 321.289062 91.71875 C 320.519531 96.816406 319.769531 101.078125 319.140625 104.652344 C 317.574219 113.5625 316.789062 118.015625 318.246094 120.878906 C 319.703125 123.734375 323.769531 125.71875 331.902344 129.691406 C 335.105469 131.25 338.914062 133.109375 343.621094 135.550781 C 344.429688 135.964844 344.75 136.960938 344.328125 137.765625 L 344.292969 137.835938 C 341.886719 142.636719 339.9375 146.308594 338.296875 149.390625 C 334.050781 157.382812 331.921875 161.382812 332.425781 164.542969 C 332.929688 167.710938 336.183594 170.859375 342.691406 177.140625 C 345.292969 179.660156 348.402344 182.664062 352.03125 186.339844 C 352.660156 186.984375 352.660156 188.011719 352.03125 188.648438 C 348.402344 192.328125 345.292969 195.332031 342.6875 197.855469 C 336.183594 204.140625 332.925781 207.28125 332.425781 210.449219 C 331.925781 213.609375 334.054688 217.605469 338.296875 225.597656 C 339.945312 228.703125 341.910156 232.394531 344.332031 237.238281 C 344.734375 238.046875 344.410156 239.019531 343.617188 239.429688 L 343.617188 239.4375 C 338.910156 241.875 335.101562 243.734375 331.898438 245.296875 C 323.765625 249.269531 319.699219 251.253906 318.242188 254.109375 C 316.785156 256.972656 317.570312 261.425781 319.136719 270.339844 C 319.765625 273.914062 320.515625 278.175781 321.285156 283.269531 C 321.421875 284.167969 320.800781 285.011719 319.902344 285.144531 L 319.820312 285.15625 C 314.71875 286 310.503906 286.59375 306.964844 287.09375 C 298 288.351562 293.519531 288.984375 291.257812 291.25 L 291.253906 291.25 L 291.257812 291.253906 C 288.984375 293.527344 288.355469 298.003906 287.097656 306.960938 C 286.59375 310.519531 285.996094 314.765625 285.140625 319.921875 C 285 320.808594 284.167969 321.414062 283.277344 321.28125 L 283.277344 321.285156 C 278.183594 320.515625 273.917969 319.761719 270.34375 319.136719 C 261.433594 317.566406 256.980469 316.78125 254.117188 318.238281 C 251.261719 319.695312 249.277344 323.765625 245.304688 331.894531 C 243.746094 335.097656 241.886719 338.910156 239.445312 343.617188 C 239.03125 344.421875 238.035156 344.742188 237.230469 344.320312 L 237.160156 344.285156 C 232.359375 341.878906 228.6875 339.933594 225.609375 338.292969 C 217.613281 334.042969 213.613281 331.921875 210.453125 332.417969 C 207.285156 332.925781 204.136719 336.175781 197.855469 342.683594 C 195.335938 345.289062 192.332031 348.398438 188.65625 352.023438 C 188.011719 352.652344 186.984375 352.652344 186.347656 352.023438 C 182.667969 348.394531 179.664062 345.285156 177.140625 342.679688 C 170.859375 336.175781 167.714844 332.921875 164.546875 332.417969 C 161.386719 331.921875 157.390625 334.046875 149.394531 338.292969 C 146.296875 339.9375 142.597656 341.902344 137.757812 344.324219 C 136.949219 344.726562 135.976562 344.402344 135.566406 343.609375 L 135.558594 343.613281 C 133.121094 338.90625 131.261719 335.09375 129.699219 331.890625 C 125.730469 323.761719 123.746094 319.691406 120.890625 318.234375 C 118.027344 316.777344 113.574219 317.5625 104.660156 319.132812 C 101.089844 319.757812 96.824219 320.511719 91.730469 321.28125 C 90.828125 321.414062 89.988281 320.796875 89.855469 319.898438 L 89.84375 319.8125 C 89 314.710938 88.402344 310.496094 87.90625 306.957031 C 86.644531 297.996094 86.015625 293.515625 83.753906 291.25 L 83.75 291.246094 L 83.738281 291.261719 C 81.464844 288.988281 76.984375 288.359375 68.03125 287.101562 C 64.472656 286.601562 60.222656 286 55.074219 285.144531 C 54.183594 285.003906 53.578125 284.167969 53.710938 283.28125 L 53.707031 283.277344 C 54.476562 278.183594 55.226562 273.921875 55.855469 270.347656 C 57.425781 261.433594 58.210938 256.980469 56.753906 254.117188 C 55.296875 251.261719 51.230469 249.277344 43.09375 245.304688 C 39.894531 243.746094 36.082031 241.886719 31.375 239.445312 C 30.570312 239.027344 30.25 238.035156 30.671875 237.226562 L 30.703125 237.15625 C 33.574219 231.429688 35.960938 227.09375 37.886719 223.609375 C 41.628906 216.808594 43.535156 213.363281 43.097656 210.613281 C 42.644531 207.75 39.554688 204.785156 33.277344 198.765625 C 30.46875 196.070312 27.046875 192.789062 22.96875 188.652344 C 22.335938 188.011719 22.339844 186.984375 22.96875 186.34375 C 26.597656 182.664062 29.707031 179.660156 32.3125 177.140625 C 38.816406 170.855469 42.070312 167.710938 42.570312 164.546875 C 43.074219 161.386719 40.945312 157.386719 36.703125 149.394531 C 35.054688 146.292969 33.089844 142.597656 30.667969 137.753906 C 30.265625 136.949219 30.589844 135.972656 31.382812 135.5625 L 31.378906 135.558594 C 36.085938 133.117188 39.898438 131.257812 43.097656 129.699219 C 51.234375 125.726562 55.300781 123.742188 56.757812 120.886719 C 58.214844 118.023438 57.429688 113.570312 55.859375 104.660156 C 55.230469 101.085938 54.480469 96.824219 53.710938 91.726562 C 53.578125 90.828125 54.199219 89.984375 55.09375 89.855469 L 55.175781 89.84375 C 60.28125 88.996094 64.492188 88.402344 68.035156 87.902344 C 76.996094 86.644531 81.476562 86.015625 83.742188 83.75 L 83.746094 83.746094 L 83.738281 83.738281 C 86.011719 81.464844 86.640625 76.988281 87.898438 68.03125 C 88.398438 64.472656 89 60.226562 89.855469 55.078125 C 90 54.183594 90.832031 53.578125 91.71875 53.714844 L 91.722656 53.707031 C 96.816406 54.476562 101.082031 55.230469 104.652344 55.859375 C 113.566406 57.425781 118.019531 58.210938 120.882812 56.753906 C 123.738281 55.296875 125.722656 51.230469 129.691406 43.097656 C 131.253906 39.894531 133.113281 36.085938 135.550781 31.378906 C 135.96875 30.570312 136.960938 30.25 137.769531 30.671875 L 137.839844 30.707031 C 142.640625 33.113281 146.308594 35.0625 149.390625 36.703125 C 157.382812 40.949219 161.382812 43.074219 164.542969 42.574219 C 167.714844 42.070312 170.859375 38.816406 177.140625 32.308594 C 179.664062 29.707031 182.664062 26.597656 186.34375 22.96875 C 186.984375 22.332031 188.015625 22.335938 188.65625 22.964844 Z M 195.492188 34.589844 C 193.261719 32.28125 190.648438 29.578125 187.5 26.449219 C 184.355469 29.578125 181.738281 32.285156 179.511719 34.585938 C 172.714844 41.621094 169.316406 45.140625 165.058594 45.816406 C 160.796875 46.492188 156.480469 44.199219 147.847656 39.609375 C 144.941406 38.066406 141.535156 36.25 137.734375 34.335938 C 135.757812 38.195312 134.082031 41.617188 132.65625 44.546875 C 128.367188 53.335938 126.222656 57.738281 122.382812 59.691406 C 118.542969 61.644531 113.722656 60.796875 104.09375 59.109375 C 100.933594 58.550781 97.238281 57.898438 92.839844 57.21875 C 92.136719 61.550781 91.613281 65.296875 91.167969 68.488281 C 89.800781 78.179688 89.117188 83.027344 86.074219 86.074219 L 86.0625 86.0625 C 83.015625 89.113281 78.167969 89.796875 68.484375 91.160156 C 65.285156 91.605469 61.546875 92.132812 57.210938 92.835938 C 57.890625 97.230469 58.542969 100.925781 59.101562 104.085938 C 60.796875 113.714844 61.644531 118.539062 59.6875 122.375 C 57.734375 126.214844 53.332031 128.363281 44.539062 132.648438 C 41.613281 134.078125 38.191406 135.75 34.328125 137.730469 C 36.25 141.53125 38.0625 144.9375 39.609375 147.84375 C 44.195312 156.472656 46.488281 160.792969 45.808594 165.054688 C 45.136719 169.3125 41.617188 172.710938 34.585938 179.503906 C 32.28125 181.738281 29.578125 184.351562 26.449219 187.5 C 30.007812 191.082031 33.03125 193.980469 35.558594 196.402344 C 42.359375 202.925781 45.714844 206.144531 46.34375 210.105469 C 46.953125 213.972656 44.867188 217.75 40.773438 225.191406 C 38.984375 228.433594 36.796875 232.402344 34.332031 237.261719 C 38.191406 239.246094 41.613281 240.917969 44.542969 242.34375 C 53.335938 246.632812 57.738281 248.78125 59.691406 252.617188 C 61.644531 256.457031 60.796875 261.277344 59.105469 270.90625 C 58.546875 274.066406 57.894531 277.761719 57.214844 282.160156 C 61.550781 282.863281 65.292969 283.386719 68.484375 283.832031 C 78.179688 285.199219 83.027344 285.882812 86.070312 288.925781 L 86.0625 288.9375 C 89.109375 291.984375 89.792969 296.832031 91.160156 306.519531 C 91.605469 309.714844 92.132812 313.453125 92.832031 317.789062 C 97.230469 317.105469 100.925781 316.453125 104.085938 315.898438 C 113.714844 314.203125 118.535156 313.355469 122.375 315.3125 C 126.214844 317.269531 128.363281 321.667969 132.648438 330.460938 C 134.078125 333.386719 135.75 336.808594 137.726562 340.671875 C 141.53125 338.75 144.9375 336.9375 147.839844 335.390625 C 156.472656 330.804688 160.789062 328.511719 165.050781 329.1875 C 169.308594 329.859375 172.710938 333.382812 179.5 340.414062 C 181.734375 342.71875 184.347656 345.421875 187.496094 348.554688 C 190.640625 345.425781 193.253906 342.722656 195.484375 340.417969 C 202.28125 333.382812 205.679688 329.859375 209.9375 329.1875 C 214.203125 328.511719 218.519531 330.808594 227.152344 335.394531 C 230.058594 336.941406 233.464844 338.753906 237.261719 340.671875 C 239.242188 336.8125 240.917969 333.390625 242.34375 330.460938 C 246.632812 321.667969 248.777344 317.265625 252.617188 315.3125 C 256.453125 313.359375 261.277344 314.203125 270.90625 315.898438 C 274.066406 316.453125 277.761719 317.105469 282.160156 317.789062 C 282.863281 313.453125 283.386719 309.707031 283.832031 306.515625 C 285.195312 296.824219 285.882812 291.976562 288.921875 288.933594 L 288.925781 288.9375 C 291.976562 285.890625 296.824219 285.203125 306.511719 283.839844 C 309.703125 283.394531 313.445312 282.867188 317.78125 282.167969 C 317.097656 277.769531 316.449219 274.074219 315.890625 270.914062 C 314.195312 261.285156 313.347656 256.464844 315.304688 252.625 C 317.257812 248.789062 321.65625 246.640625 330.453125 242.351562 C 333.375 240.921875 336.800781 239.253906 340.664062 237.269531 C 338.738281 233.46875 336.929688 230.0625 335.386719 227.160156 C 330.796875 218.527344 328.503906 214.210938 329.179688 209.945312 C 329.855469 205.691406 333.371094 202.289062 340.40625 195.5 C 342.710938 193.265625 345.417969 190.652344 348.546875 187.503906 C 345.421875 184.359375 342.714844 181.746094 340.410156 179.515625 C 333.371094 172.71875 329.855469 169.320312 329.179688 165.0625 C 328.503906 160.800781 330.796875 156.480469 335.386719 147.847656 C 336.929688 144.945312 338.742188 141.535156 340.664062 137.738281 C 336.804688 135.757812 333.378906 134.082031 330.453125 132.65625 C 321.660156 128.371094 317.257812 126.222656 315.304688 122.382812 C 313.351562 118.546875 314.195312 113.722656 315.890625 104.09375 C 316.445312 100.933594 317.097656 97.238281 317.78125 92.84375 C 313.445312 92.136719 309.703125 91.613281 306.507812 91.167969 C 296.816406 89.804688 291.96875 89.117188 288.921875 86.078125 L 288.925781 86.070312 C 285.878906 83.019531 285.195312 78.175781 283.832031 68.488281 C 283.386719 65.296875 282.859375 61.554688 282.160156 57.222656 C 277.761719 57.902344 274.066406 58.550781 270.90625 59.109375 C 261.277344 60.800781 256.453125 61.652344 252.617188 59.695312 C 248.777344 57.742188 246.628906 53.339844 242.34375 44.550781 C 240.914062 41.625 239.242188 38.203125 237.261719 34.339844 C 233.460938 36.257812 230.054688 38.074219 227.148438 39.613281 C 218.515625 44.203125 214.203125 46.496094 209.9375 45.820312 C 205.683594 45.140625 202.28125 41.625 195.492188 34.589844 Z M 195.492188 34.589844 " fill-opacity="1" fill-rule="evenodd"/></svg>